<svg width="307" height="46" viewBox="0 0 307 46" fill="none" xmlns="http://www.w3.org/2000/svg">
<g clip-path="url(#clip0_401_8)">
<path fill-rule="evenodd" clip-rule="evenodd" d="M48.0617 5.48363e-06C32.5 5.48363e-06 23.5 32.1518 23.5 37C23.5 41.8482 25.655 46 48.0617 46C70.4684 46 72.5314 41.3482 72.5 37C72.4686 32.6518 63.6234 5.48363e-06 48.0617 5.48363e-06ZM47.2961 9C52.5526 8.938 64.8333 38.4044 64.8333 38.4044L53.0526 38.597C53.0526 38.597 50.2962 24.4381 47.2961 24.4381C44.2961 24.4381 41.5731 38.3563 41.5731 38.3563L31 38.5489C31 38.5489 42.0397 9.062 47.2961 9Z" fill="#3C3C3C"/>
<path d="M91.88 29.6L93.08 26.4H105.48L106.68 29.6H91.88ZM99.2 16.32L94.48 27.44L94.16 28.16L90 38H86.2L99.2 8.6L112.2 38H108.4L104.32 28.4L104 27.6L99.2 16.32ZM116.166 32.36C116.54 32.92 116.966 33.44 117.446 33.92C117.926 34.4 118.473 34.7867 119.086 35.08C119.726 35.3467 120.42 35.48 121.166 35.48C122.073 35.48 122.78 35.28 123.286 34.88C123.82 34.4533 124.086 33.88 124.086 33.16C124.086 32.52 123.873 31.9867 123.446 31.56C123.046 31.1067 122.526 30.7333 121.886 30.44C121.246 30.12 120.566 29.8267 119.846 29.56C119.046 29.24 118.233 28.8667 117.406 28.44C116.606 27.9867 115.926 27.4133 115.366 26.72C114.833 26 114.566 25.1067 114.566 24.04C114.566 22.9467 114.846 22.04 115.406 21.32C115.993 20.6 116.74 20.0667 117.646 19.72C118.58 19.3733 119.54 19.2 120.526 19.2C121.513 19.2 122.433 19.36 123.286 19.68C124.166 20 124.94 20.4267 125.606 20.96C126.273 21.4933 126.793 22.1067 127.166 22.8L124.606 24.44C124.1 23.7467 123.46 23.1733 122.686 22.72C121.94 22.2667 121.086 22.04 120.126 22.04C119.46 22.04 118.886 22.1867 118.406 22.48C117.926 22.7733 117.686 23.2267 117.686 23.84C117.686 24.32 117.873 24.7467 118.246 25.12C118.62 25.4933 119.1 25.8267 119.686 26.12C120.273 26.4133 120.886 26.6933 121.526 26.96C122.593 27.3867 123.566 27.8533 124.446 28.36C125.326 28.84 126.02 29.4267 126.526 30.12C127.06 30.8133 127.326 31.7067 127.326 32.8C127.326 34.4 126.74 35.7333 125.566 36.8C124.42 37.8667 122.9 38.4 121.006 38.4C119.78 38.4 118.673 38.1867 117.686 37.76C116.7 37.3067 115.86 36.7333 115.166 36.04C114.5 35.3467 113.993 34.64 113.646 33.92L116.166 32.36ZM132.299 32.36C132.672 32.92 133.099 33.44 133.579 33.92C134.059 34.4 134.606 34.7867 135.219 35.08C135.859 35.3467 136.552 35.48 137.299 35.48C138.206 35.48 138.912 35.28 139.419 34.88C139.952 34.4533 140.219 33.88 140.219 33.16C140.219 32.52 140.006 31.9867 139.579 31.56C139.179 31.1067 138.659 30.7333 138.019 30.44C137.379 30.12 136.699 29.8267 135.979 29.56C135.179 29.24 134.366 28.8667 133.539 28.44C132.739 27.9867 132.059 27.4133 131.499 26.72C130.966 26 130.699 25.1067 130.699 24.04C130.699 22.9467 130.979 22.04 131.539 21.32C132.126 20.6 132.872 20.0667 133.779 19.72C134.712 19.3733 135.672 19.2 136.659 19.2C137.646 19.2 138.566 19.36 139.419 19.68C140.299 20 141.072 20.4267 141.739 20.96C142.406 21.4933 142.926 22.1067 143.299 22.8L140.739 24.44C140.232 23.7467 139.592 23.1733 138.819 22.72C138.072 22.2667 137.219 22.04 136.259 22.04C135.592 22.04 135.019 22.1867 134.539 22.48C134.059 22.7733 133.819 23.2267 133.819 23.84C133.819 24.32 134.006 24.7467 134.379 25.12C134.752 25.4933 135.232 25.8267 135.819 26.12C136.406 26.4133 137.019 26.6933 137.659 26.96C138.726 27.3867 139.699 27.8533 140.579 28.36C141.459 28.84 142.152 29.4267 142.659 30.12C143.192 30.8133 143.459 31.7067 143.459 32.8C143.459 34.4 142.872 35.7333 141.699 36.8C140.552 37.8667 139.032 38.4 137.139 38.4C135.912 38.4 134.806 38.1867 133.819 37.76C132.832 37.3067 131.992 36.7333 131.299 36.04C130.632 35.3467 130.126 34.64 129.779 33.92L132.299 32.36ZM154.792 38.4C153.085 38.4 151.565 38 150.232 37.2C148.925 36.3733 147.899 35.24 147.152 33.8C146.432 32.36 146.072 30.6933 146.072 28.8C146.072 26.88 146.445 25.2 147.192 23.76C147.965 22.32 149.032 21.2 150.392 20.4C151.779 19.6 153.379 19.2 155.192 19.2C157.005 19.2 158.552 19.5867 159.832 20.36C161.139 21.1067 162.139 22.1867 162.832 23.6C163.525 25.0133 163.872 26.6933 163.872 28.64C163.872 28.8267 163.859 29.0267 163.832 29.24C163.832 29.4267 163.832 29.5467 163.832 29.6H148.112V26.88H161.312L160.032 28.72C160.112 28.5867 160.192 28.3867 160.272 28.12C160.352 27.8267 160.392 27.5867 160.392 27.4C160.392 26.3067 160.165 25.36 159.712 24.56C159.285 23.76 158.685 23.1333 157.912 22.68C157.139 22.2267 156.232 22 155.192 22C153.965 22 152.912 22.2667 152.032 22.8C151.179 23.3067 150.512 24.0533 150.032 25.04C149.579 26 149.339 27.1867 149.312 28.6C149.312 30.04 149.539 31.2667 149.992 32.28C150.445 33.2933 151.112 34.0667 151.992 34.6C152.872 35.1333 153.939 35.4 155.192 35.4C156.445 35.4 157.552 35.1333 158.512 34.6C159.472 34.04 160.285 33.2 160.952 32.08L163.552 33.72C162.592 35.2667 161.379 36.44 159.912 37.24C158.472 38.0133 156.765 38.4 154.792 38.4ZM193.458 26.4V38H190.258V26.8C190.258 25.2267 189.964 24.0667 189.378 23.32C188.818 22.5733 187.938 22.2 186.738 22.2C185.858 22.2 185.098 22.3867 184.458 22.76C183.818 23.1067 183.324 23.6267 182.978 24.32C182.631 25.0133 182.458 25.84 182.458 26.8V38H179.258V26.8C179.258 25.2267 178.964 24.0667 178.378 23.32C177.818 22.5733 176.938 22.2 175.738 22.2C174.858 22.2 174.098 22.3867 173.458 22.76C172.818 23.1067 172.324 23.6267 171.978 24.32C171.631 25.0133 171.458 25.84 171.458 26.8V38H168.258V19.6H171.458V22.28C172.018 21.24 172.711 20.4667 173.538 19.96C174.391 19.4533 175.391 19.2 176.538 19.2C177.818 19.2 178.911 19.5067 179.818 20.12C180.751 20.7067 181.431 21.5467 181.858 22.64C182.498 21.4933 183.298 20.64 184.258 20.08C185.218 19.4933 186.311 19.2 187.538 19.2C188.791 19.2 189.858 19.48 190.738 20.04C191.618 20.6 192.284 21.4267 192.738 22.52C193.218 23.5867 193.458 24.88 193.458 26.4ZM202.469 6.8V38H199.269V6.8H202.469ZM217.869 28.8C217.869 30.7733 217.455 32.48 216.629 33.92C215.802 35.36 214.695 36.4667 213.309 37.24C211.949 38.0133 210.429 38.4 208.749 38.4C207.229 38.4 205.882 38.0133 204.709 37.24C203.562 36.4667 202.655 35.36 201.989 33.92C201.349 32.48 201.029 30.7733 201.029 28.8C201.029 26.8 201.349 25.0933 201.989 23.68C202.655 22.24 203.562 21.1333 204.709 20.36C205.882 19.5867 207.229 19.2 208.749 19.2C210.429 19.2 211.949 19.5867 213.309 20.36C214.695 21.1333 215.802 22.24 216.629 23.68C217.455 25.0933 217.869 26.8 217.869 28.8ZM214.629 28.8C214.629 27.3867 214.335 26.1867 213.749 25.2C213.189 24.2133 212.429 23.4667 211.469 22.96C210.535 22.4533 209.495 22.2 208.349 22.2C207.415 22.2 206.495 22.4533 205.589 22.96C204.682 23.4667 203.935 24.2133 203.349 25.2C202.762 26.1867 202.469 27.3867 202.469 28.8C202.469 30.2133 202.762 31.4133 203.349 32.4C203.935 33.3867 204.682 34.1333 205.589 34.64C206.495 35.1467 207.415 35.4 208.349 35.4C209.495 35.4 210.535 35.1467 211.469 34.64C212.429 34.1333 213.189 33.3867 213.749 32.4C214.335 31.4133 214.629 30.2133 214.629 28.8ZM222.281 6.8H225.481V38H222.281V6.8ZM246.1 19.6L234.1 46.8H230.5L235.54 35.4L228.5 19.6H232.3L238.14 34L236.82 33.84L242.5 19.6H246.1Z" fill="#7D7676"/>
<path d="M256.256 10.792C256.88 10.376 257.528 10.088 258.2 9.928C258.872 9.752 259.512 9.664 260.12 9.664C260.792 9.664 261.408 9.76 261.968 9.952C262.544 10.144 263.032 10.416 263.432 10.768C263.832 11.104 264.144 11.512 264.368 11.992C264.592 12.456 264.704 12.968 264.704 13.528C264.704 14.472 264.456 15.256 263.96 15.88C263.48 16.504 262.888 16.944 262.184 17.2C263.064 17.392 263.792 17.816 264.368 18.472C264.944 19.112 265.232 19.888 265.232 20.8C265.232 21.616 265.072 22.304 264.752 22.864C264.432 23.424 264.016 23.88 263.504 24.232C262.992 24.568 262.408 24.816 261.752 24.976C261.112 25.136 260.456 25.216 259.784 25.216C259.112 25.216 258.44 25.152 257.768 25.024C257.096 24.896 256.504 24.712 255.992 24.472L256.472 22.84C256.744 22.936 257 23.032 257.24 23.128C257.48 23.208 257.728 23.28 257.984 23.344C258.24 23.392 258.504 23.432 258.776 23.464C259.064 23.496 259.392 23.512 259.76 23.512C260.16 23.512 260.552 23.464 260.936 23.368C261.336 23.272 261.688 23.112 261.992 22.888C262.296 22.664 262.544 22.384 262.736 22.048C262.928 21.696 263.024 21.264 263.024 20.752C263.024 20.304 262.936 19.912 262.76 19.576C262.6 19.24 262.368 18.968 262.064 18.76C261.776 18.552 261.432 18.4 261.032 18.304C260.632 18.192 260.192 18.136 259.712 18.136H257.912V16.504H259.304C260.232 16.504 261 16.28 261.608 15.832C262.232 15.384 262.544 14.696 262.544 13.768C262.544 13.432 262.472 13.12 262.328 12.832C262.2 12.528 262.016 12.272 261.776 12.064C261.552 11.84 261.28 11.664 260.96 11.536C260.656 11.408 260.32 11.344 259.952 11.344C259.44 11.344 258.96 11.408 258.512 11.536C258.064 11.664 257.536 11.904 256.928 12.256L256.256 10.792ZM274.31 9.88C275.382 9.88 276.374 10.032 277.286 10.336C278.198 10.64 278.982 11.096 279.638 11.704C280.31 12.296 280.83 13.048 281.198 13.96C281.582 14.856 281.774 15.904 281.774 17.104C281.774 18.56 281.55 19.792 281.102 20.8C280.654 21.808 280.046 22.624 279.278 23.248C278.526 23.872 277.646 24.32 276.638 24.592C275.646 24.864 274.59 25 273.47 25H269.39V9.88H274.31ZM271.598 23.176H273.254C274.022 23.176 274.774 23.096 275.51 22.936C276.246 22.76 276.894 22.448 277.454 22C278.03 21.536 278.494 20.912 278.846 20.128C279.198 19.344 279.374 18.336 279.374 17.104C279.374 16.24 279.246 15.472 278.99 14.8C278.734 14.128 278.366 13.568 277.886 13.12C277.406 12.656 276.822 12.304 276.134 12.064C275.462 11.824 274.71 11.704 273.878 11.704H271.598V23.176Z" fill="#5A5A5A"/>
</g>
<defs>
<clipPath id="clip0_401_8">
<rect width="307" height="46" fill="white"/>
</clipPath>
</defs>
</svg>
